<?xml version="1.0" encoding="UTF-8" standalone="no"?>
<svg
   width="500"
   zoomAndPan="magnify"
   viewBox="0 0 375 187.5"
   height="250"
   preserveAspectRatio="xMidYMid"
   version="1.2"
   id="svg6"
   sodipodi:docname="solutionazer-logo.svg"
   inkscape:version="1.3.2 (091e20e, 2023-11-25, custom)"
   xmlns:inkscape="http://www.inkscape.org/namespaces/inkscape"
   xmlns:sodipodi="http://sodipodi.sourceforge.net/DTD/sodipodi-0.dtd"
   xmlns="http://www.w3.org/2000/svg"
   xmlns:svg="http://www.w3.org/2000/svg">
  <sodipodi:namedview
     id="namedview6"
     pagecolor="#ffffff"
     bordercolor="#000000"
     borderopacity="0.25"
     inkscape:showpageshadow="2"
     inkscape:pageopacity="0.0"
     inkscape:pagecheckerboard="0"
     inkscape:deskcolor="#d1d1d1"
     inkscape:zoom="1.0168196"
     inkscape:cx="220.78647"
     inkscape:cy="243.89775"
     inkscape:window-width="1253"
     inkscape:window-height="1311"
     inkscape:window-x="1278"
     inkscape:window-y="1687"
     inkscape:window-maximized="0"
     inkscape:current-layer="svg6" />
  <defs
     id="defs1" />
  <g
     id="5f144b869c"
     transform="matrix(1.2115708,0,0,1.2115708,-40.928376,-132.80248)">
    <g
       style="fill:#000000;fill-opacity:1"
       id="g2">
      <g
         transform="translate(37.500002,243.53758)"
         id="g1">
        <path
           style="stroke:none"
           d="m 45.234375,2.578125 c -9.804687,0 -19.011719,-1.046875 -27.625,-3.140625 C 8.992188,-2.664062 1.882812,-5.441406 -3.71875,-8.890625 L 10.984375,-37 c 12.164063,7 24.875,10.5 38.125,10.5 4.84375,0 8.554687,-0.585938 11.140625,-1.765625 2.59375,-1.1875 3.890625,-2.800781 3.890625,-4.84375 0,-1.945313 -1.324219,-3.507813 -3.96875,-4.6875 -2.636719,-1.1875 -6.808594,-2.476563 -12.515625,-3.875 -7.542969,-1.945313 -13.792969,-3.914063 -18.75,-5.90625 -4.949219,-1.988281 -9.28125,-5.054687 -13,-9.203125 -3.710938,-4.144531 -5.5625,-9.613281 -5.5625,-16.40625 0,-8.5 2.285156,-15.953125 6.859375,-22.359375 C 21.785156,-101.96094 28.382812,-106.92188 37,-110.42188 c 8.613281,-3.5 18.789062,-5.25 30.53125,-5.25 8.394531,0 16.226562,0.83985 23.5,2.51563 7.269531,1.66797 13.54688,4.0625 18.82813,7.1875 L 96.125,-78.1875 c -4.417969,-2.800781 -9.292969,-4.898438 -14.625,-6.296875 -5.335938,-1.40625 -10.796875,-2.109375 -16.390625,-2.109375 -5.28125,0 -9.375,0.757812 -12.28125,2.265625 -2.90625,1.511719 -4.359375,3.289063 -4.359375,5.328125 0,2.054688 1.316406,3.671875 3.953125,4.859375 2.632813,1.179687 6.96875,2.46875 13,3.875 7.320313,1.71875 13.488281,3.546875 18.5,5.484375 5.007813,1.9375 9.34375,4.953125 13,9.046875 3.664065,4.09375 5.500005,9.480469 5.500005,16.15625 0,8.398437 -2.32032,15.773437 -6.95313,22.125 -4.625,6.355469 -11.246094,11.28125 -19.859375,14.78125 -8.617187,3.5 -18.742187,5.25 -30.375,5.25 z m 0,0"
           id="path1" />
      </g>
    </g>
    <g
       style="fill:#000000;fill-opacity:1"
       id="g4">
      <g
         transform="translate(143.63909,243.53758)"
         id="g3">
        <path
           style="stroke:none"
           d="M 115.5,-89.65625 52.828125,-29.5625 H 106.14063 L 100.15625,0 h -103.875 l 4.6875,-23.421875 62.6875,-60.09375 H 14.546875 l 5.96875,-29.562505 H 120.1875 Z m 0,0"
           id="path2" />
      </g>
    </g>
    <g
       style="fill:#000000;fill-opacity:1"
       id="g6">
      <g
         transform="translate(262.84367,243.53758)"
         id="g5">
        <path
           style="stroke:none"
           d="m 49.4375,-79.3125 c 7.207031,-7.113281 17.546875,-10.671875 31.015625,-10.671875 l -6.46875,32.3125 c -2.6875,-0.425781 -5.324219,-0.640625 -7.90625,-0.640625 -6.25,0 -11.183594,1.375 -14.796875,4.125 -3.605469,2.742188 -6.054688,7.179688 -7.34375,13.3125 L 35.703125,0 H -0.8125 l 17.609375,-88.359375 h 34.40625 z m 0,0"
           id="path4" />
      </g>
    </g>
  </g>
</svg>
